PathFileType	4	(X/Y/Z)	/Users/niels/Desktop/University/Third Semester/Perception and Action/Exam/Gymnastics Motion Tracking/Code for Gym Tracking/Scripts/Analyzed Data/Start Salto/st_salto_bad_id9_2_Sports2D/st_salto_bad_id9_2_Sports2D_px_person00.trc
DataRate	CameraRate	NumFrames	NumMarkers	Units	OrigDataRate	OrigDataStartFrame	OrigNumFrames
29.871244635193133	29.871244635193133	7	22	m	29.871244635193133	58	233
Frame#	Time	Hip			RHip			RKnee			RAnkle			RBigToe			RSmallToe			RHeel			LHip			LKnee			LAnkle			LBigToe			LSmallToe			LHeel			Neck			Head			Nose			RShoulder			RElbow			RWrist			LShoulder			LElbow			LWrist		
		X1	Y1	Z1	X2	Y2	Z2	X3	Y3	Z3	X4	Y4	Z4	X5	Y5	Z5	X6	Y6	Z6	X7	Y7	Z7	X8	Y8	Z8	X9	Y9	Z9	X10	Y10	Z10	X11	Y11	Z11	X12	Y12	Z12	X13	Y13	Z13	X14	Y14	Z14	X15	Y15	Z15	X16	Y16	Z16	X17	Y17	Z17	X18	Y18	Z18	X19	Y19	Z19	X20	Y20	Z20	X21	Y21	Z21	X22	Y22	Z22
58	1.9416666666666669	-0.0020333195189541154	-0.5268953219407562	0.0	0.01296161291522213	-0.5506722871461489	0.0	0.02465490376975179	-0.6023161096113773	0.0	0.0014972918824596975	-0.7362521061175068	0.0	0.04550706601734493	-0.7718259425039503	0.0	0.023448529376282532	-0.7735159454513357	0.0	-0.010310414298199658	-0.7532391705672881	0.0	-0.002397514724240678	-0.5390564023381894	0.0	0.025636628804038004	-0.6037596972822564	0.0	0.004601252149733243	-0.7432030303376829	0.0	0.038398167972737846	-0.7787473142309985	0.0	0.0384108531425666	-0.7754178401660994	0.0	-0.0015612488057318314	-0.768415215011802	0.0	-0.001112810750830091	-0.3570814854718313	0.0	-3.0635103070401013e-06	-0.26143551815188726	0.0	0.015155121334084878	-0.3054856582763104	0.0	0.004764595975904249	-0.37059706780356433	0.0	0.028283955070251332	-0.4387520072581451	0.0	0.09680466036252515	-0.43584291741954506	0.0	0.0022962864112192755	-0.3706452433628058	0.0	0.027241810722102425	-0.43892062248962294	0.0	0.09047384967525467	-0.43445540216941736	0.0
59	1.9751436781609197	-0.0021454865763582327	-0.5271104766449561	0.0	0.013036151311443799	-0.5510208730435059	0.0	0.02414492477930008	-0.6026820050748278	0.0	0.0009618840565161778	-0.7364260577335107	0.0	0.044902004136649944	-0.772026931048972	0.0	0.022831473899289127	-0.773705825676192	0.0	-0.010796977801188885	-0.7534389582833769	0.0	-0.00264003779711058	-0.5392482941766097	0.0	0.025645417134957882	-0.6031616297740786	0.0	0.004496191187914524	-0.7432925665709299	0.0	0.03790663981661099	-0.7790029039744089	0.0	0.03794346391412042	-0.775725376535119	0.0	-0.0014715339551652608	-0.7685467188693746	0.0	-0.0012446311612033026	-0.3573633694661881	0.0	-0.00028001908423008927	-0.2615188415678072	0.0	0.014783339915385718	-0.30552419630860234	0.0	0.004807030976568742	-0.3708331005025243	0.0	0.028193802951831656	-0.4389068071889585	0.0	0.09716113848463455	-0.43577372658340313	0.0	0.0017928609665546855	-0.37079847240160574	0.0	0.02675128271950578	-0.4391412791899338	0.0	0.09010878639072814	-0.43452804105322085	0.0
60	2.0086206896551726	-0.0023718218231957647	-0.5272838792547274	0.0	0.012932137846762283	-0.5511252274580881	0.0	0.023828510499923506	-0.6029194112925843	0.0	0.00021288643599730268	-0.73664348796112	0.0	0.0440786253008959	-0.7723136590840175	0.0	0.021997534778083326	-0.7739765349809684	0.0	-0.011499573810072963	-0.7536815001837353	0.0	-0.0028589013269282697	-0.5393319911434994	0.0	0.02560492918585588	-0.602443293689497	0.0	0.004460322777997023	-0.7434994754754677	0.0	0.03749760721546588	-0.7792952626622704	0.0	0.037568837694668865	-0.7760693308790786	0.0	-0.0013321719100304753	-0.7687233603027842	0.0	-0.0015430959417936218	-0.3574818579380665	0.0	-0.000699446837995334	-0.2616156595079978	0.0	0.014262736875860564	-0.30556423709213976	0.0	0.004925291887999508	-0.37106519923967674	0.0	0.028505162338604857	-0.43902731249087057	0.0	0.09749122159907299	-0.43570657900432264	0.0	0.001430334704700831	-0.3708526157520252	0.0	0.026471313349134155	-0.43926806178662603	0.0	0.08991475378775463	-0.4344900746401811	0.0
61	2.0420977011494252	-0.0027267858481523593	-0.5272427968019944	0.0	0.012463574354648106	-0.5505697285520929	0.0	0.02418782024843981	-0.6026903792689459	0.0	-0.0005639561252652892	-0.7368241241194109	0.0	0.043264568193739104	-0.7726206734200842	0.0	0.021183292099759773	-0.7742661056437534	0.0	-0.012266261821425761	-0.7538690792711873	0.0	-0.002877393683702042	-0.5390988819753483	0.0	0.025471535159318073	-0.6019031392138405	0.0	0.004615516141882639	-0.74385547363807	0.0	0.03755577527543839	-0.779485597527557	0.0	0.037663795572868954	-0.776276686519863	0.0	-0.001163632713144025	-0.7688938873963803	0.0	-0.0020501652348916544	-0.3571270773802891	0.0	-0.0011898571750395238	-0.2616818840626994	0.0	0.013721901505865032	-0.30558174623607504	0.0	0.005149939553466786	-0.371136060477628	0.0	0.029585656767021035	-0.4389859736967525	0.0	0.0975416100714222	-0.43568827108697283	0.0	0.001646092095461237	-0.37063133694557304	0.0	0.026884413665944875	-0.4390845676708582	0.0	0.09026186436855556	-0.43420898620885123	0.0
62	2.0755747126436783	-0.0031613328887118873	-0.5267089833350459	0.0	0.011418167861559771	-0.5487788468386341	0.0	0.025949195009721135	-0.6014811171015154	0.0	-0.0009004816648661708	-0.7367975577963158	0.0	0.04300518798258192	-0.7727761557761968	0.0	0.02094898006002937	-0.7744120942183431	0.0	-0.01268707763324533	-0.7538009044849311	0.0	-0.002398405405819496	-0.5382506870975557	0.0	0.025200269682385718	-0.6021476878081583	0.0	0.005132111523164691	-0.7443399437931739	0.0	0.03870770288850316	-0.7793043733069371	0.0	0.03883423974029737	-0.7760176010658713	0.0	-0.0010345756284189144	-0.7689381403978461	0.0	-0.0027311353090237827	-0.3558577127884006	0.0	-0.0015316719847956795	-0.26163071041057506	0.0	0.013485562199249845	-0.3055332285619778	0.0	0.0054854687538822494	-0.3707700112072638	0.0	0.031823110987811785	-0.4385795926692538	0.0	0.09688151070589836	-0.4358002425200311	0.0	0.003121698671552894	-0.3698874912016715	0.0	0.0287064390203721	-0.4382693751064454	0.0	0.09169299552642629	-0.43352267059193894	0.0
63	2.109051724137931	-0.0035046328432007737	-0.5253304617047839	0.0	0.009658688852602152	-0.5451658667006651	0.0	0.029955737786982236	-0.5986876902797399	0.0	4.9612600032185145e-05	-0.7362864140687099	0.0	0.044259036285123725	-0.7724629277384728	0.0	0.022272687593918376	-0.7741148362401732	0.0	-0.011994968531439089	-0.753157734642246	0.0	-0.0010273675465939402	-0.5364668736556601	0.0	0.024772322878345247	-0.604133311785065	0.0	0.006186528673266209	-0.7448189675655039	0.0	0.04175629269024276	-0.7783415121700712	0.0	0.041844976593579955	-0.7747979224950741	0.0	-0.0010855189034158993	-0.7686475727830523	0.0	-0.00338826993664926	-0.35320249433377093	0.0	-0.0012900966748321712	-0.2613285918095362	0.0	0.014141335219022643	-0.30535647561384605	0.0	0.0058702920427770346	-0.3695848209870639	0.0	0.035400791229565895	-0.4375545317226231	0.0	0.09493173827140702	-0.4361546236146089	0.0	0.006684747269027785	-0.3683639448330889	0.0	0.03275060732333479	-0.4364567486664744	0.0	0.09481469959725791	-0.43230330288669994	0.0
64	2.142528735632184	-0.003402496886725938	-0.5228067072339311	0.0	0.007319444738160902	-0.5395004716268827	0.0	0.03678232355776585	-0.5938825484530632	0.0	0.0034954925736441758	-0.7349354963539383	0.0	0.04835907945819023	-0.771218998697383	0.0	0.026505432694928308	-0.7729381241099328	0.0	-0.009059216764964295	-0.7515420533880298	0.0	0.0016084780229834608	-0.5335825119866309	0.0	0.024244540579984573	-0.6090387697726344	0.0	0.007854600856134117	-0.7449716914823035	0.0	0.04740683062740952	-0.7761145167085441	0.0	0.04734585005100971	-0.7720484579168613	0.0	-0.0015392096246871695	-0.7677358366813016	0.0	-0.0035581384476022423	-0.3489256253975078	0.0	0.00020682262438888503	-0.260616041229126	0.0	0.016529589254021523	-0.3049846081111723	0.0	0.006122995317656917	-0.36718996581284796	0.0	0.03988663757414558	-0.4357007509912876	0.0	0.0911322071680317	-0.43686459966573027	0.0	0.012975634979736627	-0.3659474375940071	0.0	0.039534447739079694	-0.433412661335762	0.0	0.09999131649904451	-0.43058965182801906	0.0
